# xmcd
#
# Track frame offsets:
#  150
#  60377
#  90649
#  142073
#
# Disc length: 2830 seconds
#
# Revision: 0
# Processed by: cddbd v1.5.1PL2 Copyright (c) Steve Scherf et al.
# Submitted via: Collectorz.com_Music_Collector 6.10
#
DISCID=300b0c04
DTITLE=Clapton, Eric - L.A. Forum Show [CD2)
DYEAR=1975
DGENRE=
TTITLE0=Why Does Love Got To Be So Bad
TTITLE1=Teach Me To Be Your Woman
TTITLE2=Badge
TTITLE3=Eyesight To The Blind
EXTD=
EXTT0=
EXTT1=
EXTT2=
EXTT3=
PLAYORDER=
